<svg xmlns="http://www.w3.org/2000/svg" width="1200" height="630" viewBox="0 0 1200 630" role="img" aria-label="Colorful items overflowing from a packing box">
  <defs>
    <linearGradient id="bg" x1="0" y1="0" x2="1" y2="1">
      <stop offset="0" stop-color="#101e29"/>
      <stop offset="0.55" stop-color="#071018"/>
      <stop offset="1" stop-color="#03070b"/>
    </linearGradient>
    <linearGradient id="box" x1="0" y1="0" x2="0" y2="1">
      <stop offset="0" stop-color="#17303b"/>
      <stop offset="1" stop-color="#0c1b24"/>
    </linearGradient>
    <filter id="shadow" x="-20%" y="-20%" width="140%" height="150%">
      <feDropShadow dx="0" dy="18" stdDeviation="14" flood-color="#000000" flood-opacity="0.35"/>
    </filter>
  </defs>
  <rect width="1200" height="630" fill="url(#bg)"/>
  <circle cx="1028" cy="74" r="250" fill="#32d8df" opacity="0.1"/>
  <circle cx="140" cy="576" r="220" fill="#65db72" opacity="0.08"/>
  <g filter="url(#shadow)">
    <path d="M206 362 C260 330 900 330 994 362 L906 542 C742 596 430 596 278 542 Z" fill="#0a151d"/>
    <path d="M214 338 C304 288 900 288 986 338 L906 512 C730 558 434 558 294 512 Z" fill="url(#box)" stroke="#354a59" stroke-width="8"/>
    <path d="M238 342 C342 308 862 308 958 342" fill="none" stroke="#32d8df" stroke-width="10" opacity="0.23" stroke-linecap="round"/>
  </g>
  <g font-family="Apple Color Emoji, Segoe UI Emoji, Noto Color Emoji, sans-serif" font-size="58" text-anchor="middle" dominant-baseline="middle">
    <g transform="translate(170 265) rotate(-14)"><rect x="-68" y="-54" width="136" height="108" rx="28" fill="#ff6b6b"/><rect x="-48" y="-35" width="96" height="8" fill="#fff" opacity=".24"/><text y="4">📦</text></g>
    <g transform="translate(292 198) rotate(9)"><rect x="-72" y="-56" width="144" height="112" rx="29" fill="#ffad32"/><rect x="-51" y="-36" width="102" height="8" fill="#fff" opacity=".24"/><text y="4">🧸</text></g>
    <g transform="translate(432 248) rotate(-8)"><rect x="-72" y="-56" width="144" height="112" rx="29" fill="#55d68b"/><rect x="-51" y="-36" width="102" height="8" fill="#fff" opacity=".24"/><text y="4">🎒</text></g>
    <g transform="translate(586 178) rotate(12)"><rect x="-78" y="-60" width="156" height="120" rx="30" fill="#4d9cff"/><rect x="-55" y="-39" width="110" height="9" fill="#fff" opacity=".24"/><text y="4">🧃</text></g>
    <g transform="translate(734 236) rotate(-12)"><rect x="-72" y="-56" width="144" height="112" rx="29" fill="#a56bff"/><rect x="-51" y="-36" width="102" height="8" fill="#fff" opacity=".24"/><text y="4">👕</text></g>
    <g transform="translate(890 192) rotate(10)"><rect x="-74" y="-58" width="148" height="116" rx="29" fill="#24c8d8"/><rect x="-52" y="-37" width="104" height="8" fill="#fff" opacity=".24"/><text y="4">📚</text></g>
    <g transform="translate(1030 300) rotate(-9)"><rect x="-70" y="-55" width="140" height="110" rx="28" fill="#f06fb5"/><rect x="-50" y="-35" width="100" height="8" fill="#fff" opacity=".24"/><text y="4">🧰</text></g>
    <g transform="translate(348 360) rotate(14)"><rect x="-78" y="-60" width="156" height="120" rx="30" fill="#c4dd45"/><rect x="-56" y="-39" width="112" height="9" fill="#fff" opacity=".24"/><text y="4">🎁</text></g>
    <g transform="translate(522 358) rotate(-7)"><rect x="-74" y="-58" width="148" height="116" rx="29" fill="#ff8058"/><rect x="-52" y="-37" width="104" height="8" fill="#fff" opacity=".24"/><text y="4">🛟</text></g>
    <g transform="translate(694 356) rotate(9)"><rect x="-78" y="-60" width="156" height="120" rx="30" fill="#ff6b6b"/><rect x="-56" y="-39" width="112" height="9" fill="#fff" opacity=".24"/><text y="4">📦</text></g>
    <g transform="translate(856 378) rotate(-13)"><rect x="-76" y="-59" width="152" height="118" rx="30" fill="#55d68b"/><rect x="-54" y="-38" width="108" height="9" fill="#fff" opacity=".24"/><text y="4">🎒</text></g>
  </g>
  <g opacity=".85">
    <ellipse cx="600" cy="548" rx="340" ry="34" fill="#32d8df" opacity=".12"/>
    <ellipse cx="600" cy="552" rx="220" ry="20" fill="#000" opacity=".22"/>
  </g>
</svg>
