<svg xmlns="http://www.w3.org/2000/svg" width="1200" height="630" viewBox="0 0 1200 630">
  <defs>
    <filter id="shadow" x="-20%" y="-20%" width="140%" height="140%"><feDropShadow dx="0" dy="12" stdDeviation="10" flood-color="#000" flood-opacity=".35"/></filter>
    <linearGradient id="red" x1="0" x2="1"><stop stop-color="#ff3049"/><stop offset="1" stop-color="#c9163c"/></linearGradient>
    <linearGradient id="blue" x1="0" x2="1"><stop stop-color="#2458ff"/><stop offset="1" stop-color="#152baa"/></linearGradient>
  </defs>
  <rect width="600" height="630" fill="url(#red)"/>
  <rect x="600" width="600" height="630" fill="url(#blue)"/>
  <path d="M565 0h105l-66 240h82L515 630l49-290h-82z" fill="#ffe54f" filter="url(#shadow)"/>
  <g opacity=".95">
    <rect width="1200" height="34" fill="#ffe54f"/>
    <g fill="#111">
      <path d="M0 0h44l54 34H54z"/><path d="M120 0h44l54 34h-44z"/><path d="M240 0h44l54 34h-44z"/><path d="M360 0h44l54 34h-44z"/><path d="M480 0h44l54 34h-44z"/><path d="M600 0h44l54 34h-44z"/><path d="M720 0h44l54 34h-44z"/><path d="M840 0h44l54 34h-44z"/><path d="M960 0h44l54 34h-44z"/><path d="M1080 0h44l54 34h-44z"/>
    </g>
  </g>
  <text x="600" y="100" text-anchor="middle" font-family="Arial,'Noto Sans SC',sans-serif" font-size="46" font-weight="900" fill="#fff36b">PACK BATTLE</text>
  <text x="600" y="176" text-anchor="middle" font-family="Arial,'Noto Sans SC',sans-serif" font-size="86" font-weight="900" fill="white">谁最能装？</text>
  <text x="600" y="236" text-anchor="middle" font-family="Arial,'Noto Sans SC',sans-serif" font-size="34" font-weight="900" fill="#e9fbff">同一箱，直接开塞 · 来一局 PK</text>
  <g filter="url(#shadow)">
    <rect x="120" y="305" width="180" height="130" rx="28" fill="#ffb22e" transform="rotate(-9 210 370)"/>
    <text x="210" y="375" text-anchor="middle" font-size="52">🧸</text>
    <rect x="275" y="350" width="180" height="130" rx="28" fill="#35d967" transform="rotate(8 365 415)"/>
    <text x="365" y="420" text-anchor="middle" font-size="52">🎒</text>
    <rect x="145" y="455" width="180" height="130" rx="28" fill="#ff66bf" transform="rotate(10 235 520)"/>
    <text x="235" y="525" text-anchor="middle" font-size="52">🧰</text>
    <rect x="885" y="305" width="180" height="130" rx="28" fill="#26d7e4" transform="rotate(9 975 370)"/>
    <text x="975" y="375" text-anchor="middle" font-size="52">📦</text>
    <rect x="735" y="350" width="180" height="130" rx="28" fill="#a66cff" transform="rotate(-8 825 415)"/>
    <text x="825" y="420" text-anchor="middle" font-size="52">👕</text>
    <rect x="870" y="455" width="180" height="130" rx="28" fill="#39a8ff" transform="rotate(-10 960 520)"/>
    <text x="960" y="525" text-anchor="middle" font-size="52">📚</text>
  </g>
  <g filter="url(#shadow)">
    <path d="M600 292l34 68 75 11-54 53 13 75-68-36-67 36 13-75-55-53 76-11z" fill="#ffe54f"/>
    <text x="600" y="428" text-anchor="middle" font-family="Arial,sans-serif" font-size="112" font-weight="900" fill="#17152f">VS</text>
  </g>
  <rect x="330" y="520" width="540" height="74" rx="37" fill="rgba(0,0,0,.48)"/>
  <text x="600" y="568" text-anchor="middle" font-family="Arial,'Noto Sans SC',sans-serif" font-size="38" font-weight="900" fill="#fff">看谁更快塞满箱子</text>
</svg>