<svg xmlns="http://www.w3.org/2000/svg" width="1200" height="630" viewBox="0 0 1200 630">
  <defs>
    <linearGradient id="bg" x1="0" y1="0" x2="1" y2="1"><stop offset="0" stop-color="#24105f"/><stop offset="0.52" stop-color="#133b8f"/><stop offset="1" stop-color="#071026"/></linearGradient>
    <linearGradient id="cta" x1="0" y1="0" x2="1" y2="1"><stop offset="0" stop-color="#ffe65f"/><stop offset="0.48" stop-color="#ff9f35"/><stop offset="1" stop-color="#ff5f9d"/></linearGradient>
    <filter id="shadow" x="-20%" y="-20%" width="140%" height="140%"><feDropShadow dx="0" dy="18" stdDeviation="18" flood-color="#000" flood-opacity=".38"/></filter>
  </defs>
  <rect width="1200" height="630" fill="url(#bg)"/>
  <circle cx="105" cy="85" r="250" fill="#ff5f9d" opacity=".18"/>
  <circle cx="1060" cy="70" r="300" fill="#37e6f2" opacity=".16"/>
  <text x="76" y="104" fill="#37e6f2" font-size="44" font-family="Arial, sans-serif" font-weight="900">RESCUE RUSH</text>
  <text x="76" y="185" fill="#ffffff" font-size="76" font-family="Arial, sans-serif" font-weight="900">谁最会救场？</text>
  <text x="80" y="242" fill="#dff7ff" font-size="32" font-family="Arial, sans-serif" font-weight="800">突发状况砸过来，看谁最快稳住全场</text>
  <g filter="url(#shadow)">
    <rect x="118" y="310" width="150" height="118" rx="30" fill="#37e6f2" transform="rotate(-10 193 369)"/><text x="193" y="386" text-anchor="middle" font-size="58">💦</text>
    <rect x="275" y="270" width="160" height="124" rx="30" fill="#76f06b" transform="rotate(8 355 332)"/><text x="355" y="350" text-anchor="middle" font-size="62">🙂</text>
    <rect x="455" y="320" width="160" height="124" rx="30" fill="#ffb33d" transform="rotate(-7 535 382)"/><text x="535" y="400" text-anchor="middle" font-size="62">📦</text>
    <rect x="636" y="264" width="168" height="128" rx="32" fill="#ff5f9d" transform="rotate(10 720 328)"/><text x="720" y="348" text-anchor="middle" font-size="62">📣</text>
    <rect x="820" y="318" width="160" height="124" rx="30" fill="#9a7cff" transform="rotate(-8 900 380)"/><text x="900" y="399" text-anchor="middle" font-size="62">🔧</text>
    <ellipse cx="580" cy="486" rx="460" ry="68" fill="#071026" opacity=".52"/>
  </g>
  <rect x="76" y="500" width="560" height="82" rx="41" fill="url(#cta)"/>
  <text x="356" y="554" text-anchor="middle" fill="#17122a" font-size="34" font-family="Arial, sans-serif" font-weight="900">我救回全场了，你能更快吗？</text>
</svg>
